<?xml version="1.0" standalone="no"?>
<!DOCTYPE svg PUBLIC "-//W3C//DTD SVG 20010904//EN"
 "http://www.w3.org/TR/2001/REC-SVG-20010904/DTD/svg10.dtd">
<svg version="1.0" xmlns="http://www.w3.org/2000/svg"
 width="159.000000pt" height="144.000000pt" viewBox="0 0 159.000000 144.000000"
 preserveAspectRatio="xMidYMid meet">

<g transform="translate(0.000000,144.000000) scale(0.100000,-0.100000)"
fill="#000000" stroke="none">
<path d="M115 1310 c-8 -13 0 -21 42 -46 17 -10 18 -37 23 -415 l5 -404 33
-68 c25 -50 46 -77 80 -102 52 -38 159 -81 225 -91 92 -14 67 -23 -65 -24
l-138 0 0 -35 0 -35 515 0 515 0 0 35 0 35 -122 0 c-67 0 -119 2 -116 5 2 3
39 14 82 25 42 10 97 28 121 39 68 30 141 104 167 170 22 54 23 67 25 436 2
209 5 390 8 402 3 13 19 30 35 38 17 9 28 20 25 25 -4 6 -88 10 -201 10 -166
0 -194 -2 -194 -15 0 -8 6 -15 14 -15 37 0 46 -28 46 -138 l0 -106 -28 45
c-39 60 -94 106 -170 142 -52 24 -81 31 -157 35 -155 8 -269 -31 -361 -125
l-54 -55 0 84 c0 88 7 105 52 121 10 3 15 12 13 19 -8 19 -409 26 -420 8z
m837 -71 c168 -36 285 -163 309 -336 10 -68 9 -85 -4 -114 -17 -36 -24 -171
-12 -225 15 -67 -57 -153 -175 -208 -57 -27 -78 -31 -171 -34 -59 -2 -130 1
-159 7 -247 53 -382 313 -310 597 34 133 103 225 209 276 90 44 212 58 313 37z"/>
<path d="M729 1216 c-117 -31 -216 -120 -259 -233 -28 -73 -39 -247 -20 -332
27 -123 109 -229 213 -276 111 -50 294 -51 402 -1 128 58 207 186 143 230 -36
25 -52 20 -130 -45 -92 -78 -137 -98 -211 -99 -126 0 -209 84 -233 238 l-7 42
255 0 c343 0 358 6 358 134 -1 79 -27 157 -74 219 -38 50 -123 104 -192 122
-69 18 -181 19 -245 1z m206 -135 c22 -10 48 -27 57 -37 26 -30 57 -107 64
-158 l7 -46 -217 0 -216 0 6 43 c26 170 162 261 299 198z"/>
</g>
</svg>
