<?xml version="1.0" standalone="no"?>
<!DOCTYPE svg PUBLIC "-//W3C//DTD SVG 20010904//EN"
 "http://www.w3.org/TR/2001/REC-SVG-20010904/DTD/svg10.dtd">
<svg version="1.0" xmlns="http://www.w3.org/2000/svg"
 width="500.000000pt" height="500.000000pt" viewBox="0 0 500.000000 500.000000"
 preserveAspectRatio="xMidYMid meet">

<g transform="translate(0.000000,500.000000) scale(0.100000,-0.100000)"
fill="#000000" stroke="none">
<path d="M3015 4783 c4 -21 12 -54 18 -73 7 -20 11 -97 11 -180 0 -130 -3
-154 -28 -235 -73 -237 -212 -450 -438 -675 -61 -61 -116 -109 -121 -107 -5 1
-19 27 -30 57 -25 67 -61 126 -99 162 l-29 27 40 20 c80 42 181 174 181 240 0
24 -2 23 -41 -16 -42 -42 -107 -79 -160 -90 -31 -6 -38 7 -14 27 31 26 71 150
48 150 -5 0 -25 -16 -44 -36 -48 -51 -137 -89 -268 -114 -174 -34 -233 -65
-275 -148 -13 -26 -37 -55 -54 -64 -50 -29 -100 -94 -116 -149 -28 -94 -19
-113 32 -67 84 73 209 95 287 50 60 -35 78 -65 77 -128 0 -68 -25 -111 -119
-214 -110 -120 -183 -226 -183 -267 0 -13 10 -7 34 22 19 22 37 38 40 35 3 -3
-2 -26 -11 -50 -44 -125 -56 -326 -28 -462 16 -73 50 -159 80 -201 16 -21 16
-17 10 63 -20 255 80 480 313 701 48 46 193 165 321 264 567 438 659 526 769
746 51 101 66 174 59 294 -5 110 -42 213 -110 308 -45 63 -130 147 -149 147
-5 0 -6 -17 -3 -37z m-1065 -989 c0 -28 -21 -55 -53 -69 -60 -25 -76 7 -28 56
32 32 81 40 81 13z"/>
<path d="M2345 4714 c-183 -26 -350 -80 -515 -165 -106 -55 -238 -144 -227
-155 2 -2 37 10 78 27 116 49 250 80 379 86 182 9 320 -24 472 -112 43 -25 90
-45 105 -45 40 0 171 -26 227 -45 40 -14 50 -14 57 -3 13 19 22 76 16 92 -6
14 -178 58 -282 71 -27 4 -81 23 -120 42 -58 30 -128 59 -214 89 -32 11 10 24
109 33 149 14 322 -5 498 -55 20 -6 22 -3 22 32 0 22 -4 45 -9 53 -5 7 -44 22
-87 33 -63 16 -119 21 -279 23 -110 2 -213 1 -230 -1z"/>
<path d="M1960 4421 c-291 -43 -544 -201 -708 -443 -86 -126 -167 -346 -193
-517 -15 -107 -7 -334 18 -456 12 -60 19 -80 21 -60 27 272 132 482 316 627
39 31 56 55 82 115 51 116 92 178 185 277 174 183 381 301 621 351 38 8 87 15
109 15 54 0 49 15 -15 39 -132 49 -309 70 -436 52z m-54 -119 c-3 -5 -36 -27
-73 -48 -42 -24 -108 -78 -174 -144 -116 -115 -186 -218 -242 -353 -24 -61
-39 -82 -61 -94 -16 -9 -63 -49 -103 -91 -41 -41 -75 -73 -77 -71 -2 2 7 47
20 99 74 292 299 564 546 660 46 17 92 36 103 40 26 11 68 12 61 2z"/>
<path d="M3376 4315 c-40 -349 -198 -546 -806 -1006 -464 -350 -618 -527 -662
-759 -12 -66 -3 -248 17 -325 32 -122 125 -267 249 -388 83 -82 134 -118 219
-157 112 -52 130 -48 44 10 -107 71 -254 219 -294 295 -53 101 -80 252 -53
295 11 18 16 7 24 -60 14 -126 102 -256 241 -362 111 -84 194 -128 326 -172
174 -59 378 -82 504 -57 l40 8 -50 7 c-151 20 -191 28 -267 52 -102 32 -161
62 -256 127 -95 65 -164 143 -210 236 -35 71 -37 80 -37 171 0 90 2 100 30
146 40 64 76 83 270 145 88 28 195 69 239 91 82 41 186 114 186 129 0 9 -34 4
-78 -12 -33 -13 -116 -11 -149 2 l-28 11 30 10 c213 71 346 161 454 306 53 72
125 205 119 221 -1 5 -31 -15 -66 -44 -34 -30 -90 -70 -122 -89 -69 -41 -207
-92 -218 -82 -4 4 0 11 8 16 87 50 229 182 296 277 93 129 154 298 153 418 l0
60 -20 -44 c-28 -63 -98 -157 -166 -223 -61 -59 -158 -128 -181 -128 -7 0 16
34 52 75 121 139 204 277 233 388 28 111 7 313 -46 431 l-18 41 -7 -60z"/>
<path d="M3515 4315 c4 -11 10 -38 13 -60 3 -27 22 -63 58 -110 129 -173 201
-360 226 -588 11 -104 4 -222 -13 -212 -5 4 -9 21 -9 38 0 58 -39 195 -86 307
-26 61 -51 110 -56 110 -7 0 -13 -69 -11 -135 0 -11 12 -65 27 -120 65 -248
54 -501 -30 -692 -14 -31 -23 -57 -21 -59 8 -8 74 49 117 100 100 120 149 232
181 405 34 187 19 353 -47 524 -41 106 -77 172 -155 283 -62 88 -205 241 -194
209z"/>
<path d="M1378 3429 c-102 -126 -170 -272 -189 -406 -53 -379 216 -814 645
-1039 55 -30 107 -54 114 -54 8 0 3 14 -12 38 -14 20 -32 55 -40 77 -13 31
-27 46 -63 65 -235 124 -460 405 -523 654 -27 108 -27 286 1 286 5 0 9 -21 9
-48 0 -111 75 -297 177 -438 64 -90 141 -179 148 -173 2 3 -6 45 -19 96 -16
64 -34 109 -63 154 -144 221 -207 539 -151 766 16 64 6 71 -34 22z"/>
<path d="M4017 3375 c-23 -119 -49 -214 -79 -283 -77 -178 -218 -341 -353
-410 -67 -35 -87 -51 -125 -103 -93 -126 -250 -251 -395 -313 -140 -60 -266
-86 -485 -98 l-45 -3 80 -38 c125 -61 217 -80 375 -81 179 -1 269 20 416 94
312 158 485 389 577 770 28 115 51 337 45 440 -3 62 -4 63 -11 25z m-203 -657
c-15 -49 -74 -156 -118 -215 -94 -124 -241 -235 -386 -289 -84 -32 -190 -57
-190 -45 0 3 32 23 70 44 99 54 200 137 310 255 54 58 117 115 145 131 28 16
75 54 105 85 60 60 75 68 64 34z"/>
<path d="M3415 2070 c-44 -22 -120 -51 -170 -66 -82 -25 -106 -27 -260 -28
-150 -1 -180 2 -255 23 -47 13 -111 37 -142 53 -32 15 -58 24 -58 19 0 -17 92
-101 134 -123 22 -11 63 -29 91 -39 l50 -17 -33 -7 c-45 -10 -36 -26 30 -52
53 -22 58 -22 129 -8 189 37 358 110 497 214 113 86 111 91 -13 31z"/>
<path d="M1044 1156 c-3 -8 -4 -29 -2 -48 l3 -33 105 -2 c166 -4 150 16 150
-189 l0 -176 -29 -29 c-40 -40 -108 -41 -163 -3 -21 15 -40 25 -41 23 -2 -2
-15 -20 -29 -40 l-27 -36 27 -25 c47 -45 86 -58 167 -58 116 0 182 39 215 125
12 32 24 410 14 468 l-6 37 -189 0 c-154 0 -191 -3 -195 -14z"/>
<path d="M1648 1148 c-2 -13 -2 -152 0 -310 l3 -288 234 0 235 0 6 24 c3 13 4
35 2 47 -3 24 -4 24 -173 29 l-170 5 -3 77 -3 77 148 3 148 3 0 45 0 45 -146
3 c-167 3 -159 -2 -159 98 0 64 -2 64 193 64 l147 0 0 50 0 50 -229 0 -230 0
-3 -22z"/>
<path d="M2317 1163 c-4 -3 -7 -143 -7 -310 l0 -303 65 0 65 0 0 180 c0 99 4
180 8 180 5 0 69 -69 144 -152 191 -215 185 -210 244 -206 l49 3 0 305 0 305
-65 0 -65 0 -5 -195 -5 -194 -125 144 c-69 80 -145 169 -169 198 -40 47 -48
52 -86 52 -23 0 -45 -3 -48 -7z"/>
<path d="M3793 1066 c-42 -58 -80 -103 -84 -101 -4 3 -35 48 -70 100 l-64 95
-78 0 c-43 0 -77 -3 -75 -8 2 -4 47 -69 101 -144 53 -75 97 -143 97 -151 0 -7
-49 -80 -110 -161 -60 -80 -110 -149 -110 -151 0 -8 134 -5 146 3 6 4 43 51
84 105 40 54 77 96 83 94 5 -1 42 -48 81 -102 l71 -100 56 -3 c30 -2 65 1 77
5 20 8 14 18 -88 153 -60 80 -109 152 -110 160 0 13 134 201 189 265 37 44 36
45 -44 45 l-76 0 -76 -104z"/>
<path d="M3112 853 l3 -308 65 0 65 0 3 308 2 307 -70 0 -70 0 2 -307z"/>
</g>
</svg>
