<svg width="26" height="26" viewBox="0 0 26 26" fill="none" xmlns="http://www.w3.org/2000/svg">
<g clip-path="url(#clip0_35_661)">
<path d="M3.25 13C3.25 14.2804 3.50219 15.5482 3.99217 16.7312C4.48216 17.9141 5.20034 18.9889 6.10571 19.8943C7.01108 20.7997 8.08591 21.5178 9.26884 22.0078C10.4518 22.4978 11.7196 22.75 13 22.75C14.2804 22.75 15.5482 22.4978 16.7312 22.0078C17.9141 21.5178 18.9889 20.7997 19.8943 19.8943C20.7997 18.9889 21.5178 17.9141 22.0078 16.7312C22.4978 15.5482 22.75 14.2804 22.75 13C22.75 11.7196 22.4978 10.4518 22.0078 9.26884C21.5178 8.08591 20.7997 7.01108 19.8943 6.10571C18.9889 5.20034 17.9141 4.48216 16.7312 3.99217C15.5482 3.50219 14.2804 3.25 13 3.25C11.7196 3.25 10.4518 3.50219 9.26884 3.99217C8.08591 4.48216 7.01108 5.20034 6.10571 6.10571C5.20034 7.01108 4.48216 8.08591 3.99217 9.26884C3.50219 10.4518 3.25 11.7196 3.25 13Z" stroke="#616161" stroke-width="2" stroke-linecap="round" stroke-linejoin="round"/>
<path d="M9.75 10.8333C9.75 11.6953 10.0924 12.5219 10.7019 13.1314C11.3114 13.7409 12.138 14.0833 13 14.0833C13.862 14.0833 14.6886 13.7409 15.2981 13.1314C15.9076 12.5219 16.25 11.6953 16.25 10.8333C16.25 9.97136 15.9076 9.14471 15.2981 8.53522C14.6886 7.92572 13.862 7.58331 13 7.58331C12.138 7.58331 11.3114 7.92572 10.7019 8.53522C10.0924 9.14471 9.75 9.97136 9.75 10.8333Z" stroke="#616161" stroke-width="2" stroke-linecap="round" stroke-linejoin="round"/>
<path d="M6.68201 20.4197C6.95014 19.5273 7.49881 18.7451 8.24661 18.1891C8.99441 17.6331 9.90151 17.333 10.8333 17.3333H15.1667C16.0997 17.333 17.0079 17.6338 17.7563 18.1911C18.5046 18.7483 19.0531 19.5322 19.3202 20.4262" stroke="#616161" stroke-width="2" stroke-linecap="round" stroke-linejoin="round"/>
</g>
<defs>
<clipPath id="clip0_35_661">
<rect width="26" height="26" fill="white"/>
</clipPath>
</defs>
</svg>
