<svg width="21" height="21" viewBox="0 0 21 21" fill="none" xmlns="http://www.w3.org/2000/svg">
<g clip-path="url(#clip0_18_4470)">
<path d="M7.875 4.375H6.125C5.66087 4.375 5.21575 4.55937 4.88756 4.88756C4.55937 5.21575 4.375 5.66087 4.375 6.125V16.625C4.375 17.0891 4.55937 17.5342 4.88756 17.8624C5.21575 18.1906 5.66087 18.375 6.125 18.375H14.875C15.3391 18.375 15.7842 18.1906 16.1124 17.8624C16.4406 17.5342 16.625 17.0891 16.625 16.625V6.125C16.625 5.66087 16.4406 5.21575 16.1124 4.88756C15.7842 4.55937 15.3391 4.375 14.875 4.375H13.125" stroke="#C6CAD2" stroke-width="1.7" stroke-linecap="round" stroke-linejoin="round"/>
<path d="M7.875 4.375C7.875 3.91087 8.05937 3.46575 8.38756 3.13756C8.71575 2.80937 9.16087 2.625 9.625 2.625H11.375C11.8391 2.625 12.2842 2.80937 12.6124 3.13756C12.9406 3.46575 13.125 3.91087 13.125 4.375C13.125 4.83913 12.9406 5.28425 12.6124 5.61244C12.2842 5.94063 11.8391 6.125 11.375 6.125H9.625C9.16087 6.125 8.71575 5.94063 8.38756 5.61244C8.05937 5.28425 7.875 4.83913 7.875 4.375Z" stroke="#C6CAD2" stroke-width="1.7" stroke-linecap="round" stroke-linejoin="round"/>
</g>
<defs>
<clipPath id="clip0_18_4470">
<rect width="21" height="21" fill="white"/>
</clipPath>
</defs>
</svg>
