<svg width="24" height="24" viewBox="0 0 24 24" fill="none" xmlns="http://www.w3.org/2000/svg">
<g clip-path="url(#clip0_3_213)">
<path d="M20.866 10.45C20.5632 8.71769 19.7596 7.11204 18.5544 5.83143C17.3491 4.55081 15.7951 3.65133 14.0844 3.24413C12.3736 2.83693 10.581 2.93984 8.9281 3.54015C7.27517 4.14047 5.83433 5.21188 4.78358 6.62201C3.73284 8.03215 3.11824 9.71922 3.0157 11.4748C2.91317 13.2304 3.32721 14.9775 4.20666 16.5004C5.0861 18.0232 6.39243 19.2551 7.96424 20.0437C9.53604 20.8324 11.3045 21.1433 13.051 20.938" stroke="#4A3AFF" stroke-width="2" stroke-linecap="round" stroke-linejoin="round"/>
<path d="M12 7V12L13.5 13.5" stroke="#4A3AFF" stroke-width="2" stroke-linecap="round" stroke-linejoin="round"/>
<path d="M21 15H18.5C18.1022 15 17.7206 15.158 17.4393 15.4393C17.158 15.7206 17 16.1022 17 16.5C17 16.8978 17.158 17.2794 17.4393 17.5607C17.7206 17.842 18.1022 18 18.5 18H19.5C19.8978 18 20.2794 18.158 20.5607 18.4393C20.842 18.7206 21 19.1022 21 19.5C21 19.8978 20.842 20.2794 20.5607 20.5607C20.2794 20.842 19.8978 21 19.5 21H17" stroke="#4A3AFF" stroke-width="2" stroke-linecap="round" stroke-linejoin="round"/>
<path d="M19 21V22M19 14V15" stroke="#4A3AFF" stroke-width="2" stroke-linecap="round" stroke-linejoin="round"/>
</g>
<defs>
<clipPath id="clip0_3_213">
<rect width="24" height="24" fill="white"/>
</clipPath>
</defs>
</svg>
