<svg width="22" height="20" viewBox="0 0 22 20" fill="none" xmlns="http://www.w3.org/2000/svg">
<path d="M12.1111 14.5L16.5556 10M16.5556 10L12.1111 5.5M16.5556 10H0.999999M6.55555 14.5V15.625C6.55555 16.5201 6.90674 17.3786 7.53187 18.0115C8.15699 18.6444 9.00483 19 9.88889 19H17.6667C18.5507 19 19.3986 18.6444 20.0237 18.0115C20.6488 17.3786 21 16.5201 21 15.625V4.375C21 3.47989 20.6488 2.62145 20.0237 1.98851C19.3986 1.35558 18.5507 1 17.6667 1H9.88889C9.00483 1 8.15699 1.35558 7.53187 1.98851C6.90674 2.62145 6.55555 3.47989 6.55555 4.375V5.5" stroke="#DF2040" stroke-width="2" stroke-linecap="round" stroke-linejoin="round"/>
</svg>
