<svg width="21" height="21" viewBox="0 0 21 21" fill="none" xmlns="http://www.w3.org/2000/svg">
<g clip-path="url(#clip0_18_4492)">
<path d="M7 7.875H14" stroke="#C6CAD2" stroke-width="1.7" stroke-linecap="round" stroke-linejoin="round"/>
<path d="M7 11.375H10.0625" stroke="#C6CAD2" stroke-width="1.7" stroke-linecap="round" stroke-linejoin="round"/>
<path d="M9.1875 17.0625L7.875 15.75H5.25C4.55381 15.75 3.88613 15.4734 3.39384 14.9812C2.90156 14.4889 2.625 13.8212 2.625 13.125V6.125C2.625 5.42881 2.90156 4.76113 3.39384 4.26884C3.88613 3.77656 4.55381 3.5 5.25 3.5H15.75C16.4462 3.5 17.1139 3.77656 17.6062 4.26884C18.0984 4.76113 18.375 5.42881 18.375 6.125V9.625" stroke="#C6CAD2" stroke-width="1.7" stroke-linecap="round" stroke-linejoin="round"/>
<path d="M15.75 19.25L18.6812 16.3765C18.861 16.202 19.004 15.9934 19.1017 15.7628C19.1995 15.5322 19.2501 15.2843 19.2505 15.0338C19.2509 14.7834 19.2011 14.5353 19.1041 14.3044C19.0071 14.0735 18.8648 13.8644 18.6856 13.6894C18.32 13.3318 17.8292 13.1311 17.3177 13.1301C16.8063 13.1292 16.3147 13.3279 15.9477 13.6841L15.7517 13.8766L15.5566 13.6841C15.191 13.3268 14.7004 13.1263 14.1892 13.1253C13.678 13.1243 13.1866 13.3229 12.8196 13.6789C12.6398 13.8532 12.4967 14.0619 12.3989 14.2924C12.301 14.523 12.2504 14.7708 12.2499 15.0213C12.2494 15.2718 12.2991 15.5198 12.396 15.7508C12.493 15.9817 12.6352 16.1909 12.8144 16.366L15.75 19.25Z" stroke="#C6CAD2" stroke-width="1.7" stroke-linecap="round" stroke-linejoin="round"/>
</g>
<defs>
<clipPath id="clip0_18_4492">
<rect width="21" height="21" fill="white"/>
</clipPath>
</defs>
</svg>
