<svg width="15" height="15" viewBox="0 0 15 15" fill="none" xmlns="http://www.w3.org/2000/svg">
<g clip-path="url(#clip0_3_315)">
<path d="M2.5 6.875H12.5C12.6658 6.875 12.8247 6.94085 12.9419 7.05806C13.0592 7.17527 13.125 7.33424 13.125 7.5V7.8125C13.125 8.75 11.5519 11.2956 10.625 11.875V12.5C10.625 12.6658 10.5592 12.8247 10.4419 12.9419C10.3247 13.0592 10.1658 13.125 10 13.125H5C4.83424 13.125 4.67527 13.0592 4.55806 12.9419C4.44085 12.8247 4.375 12.6658 4.375 12.5V11.875C3.32062 11.2162 1.875 8.75 1.875 7.8125V7.5C1.875 7.33424 1.94085 7.17527 2.05806 7.05806C2.17527 6.94085 2.33424 6.875 2.5 6.875Z" stroke="#565D6B" stroke-linecap="round" stroke-linejoin="round"/>
<path d="M11.5625 6.875C11.7819 6.23938 11.8288 5.4775 11.875 4.55375V3.75H10.465C8.69625 3.75 7.58 4.2525 6.94 5.0475" stroke="#565D6B" stroke-linecap="round" stroke-linejoin="round"/>
<path d="M3.28438 6.88C3.19659 6.4668 3.14328 6.04702 3.125 5.625V5H4.22188C4.83438 5 5.3475 5.0775 5.77125 5.21875" stroke="#565D6B" stroke-linecap="round" stroke-linejoin="round"/>
<path d="M5 5L5.625 2.5L8.125 4.0625" stroke="#565D6B" stroke-linecap="round" stroke-linejoin="round"/>
<path d="M8.125 6.875V6.5625C8.125 6.1481 7.96038 5.75067 7.66735 5.45765C7.37433 5.16462 6.9769 5 6.5625 5C6.1481 5 5.75067 5.16462 5.45765 5.45765C5.16462 5.75067 5 6.1481 5 6.5625V6.875" stroke="#565D6B" stroke-linecap="round" stroke-linejoin="round"/>
</g>
<defs>
<clipPath id="clip0_3_315">
<rect width="15" height="15" fill="white"/>
</clipPath>
</defs>
</svg>
