<svg width="21" height="21" viewBox="0 0 21 21" fill="none" xmlns="http://www.w3.org/2000/svg">
<g clip-path="url(#clip0_18_4456)">
<path d="M2.625 10.5C2.625 11.1962 2.90156 11.8639 3.39384 12.3562C3.88613 12.8484 4.55381 13.125 5.25 13.125C5.94619 13.125 6.61387 12.8484 7.10616 12.3562C7.59844 11.8639 7.875 11.1962 7.875 10.5C7.875 9.80381 7.59844 9.13613 7.10616 8.64384C6.61387 8.15156 5.94619 7.875 5.25 7.875C4.55381 7.875 3.88613 8.15156 3.39384 8.64384C2.90156 9.13613 2.625 9.80381 2.625 10.5Z" stroke="#C6CAD2" stroke-width="1.7" stroke-linecap="round" stroke-linejoin="round"/>
<path d="M13.125 5.25C13.125 5.94619 13.4016 6.61387 13.8938 7.10616C14.3861 7.59844 15.0538 7.875 15.75 7.875C16.4462 7.875 17.1139 7.59844 17.6062 7.10616C18.0984 6.61387 18.375 5.94619 18.375 5.25C18.375 4.55381 18.0984 3.88613 17.6062 3.39384C17.1139 2.90156 16.4462 2.625 15.75 2.625C15.0538 2.625 14.3861 2.90156 13.8938 3.39384C13.4016 3.88613 13.125 4.55381 13.125 5.25Z" stroke="#C6CAD2" stroke-width="1.7" stroke-linecap="round" stroke-linejoin="round"/>
<path d="M13.125 15.75C13.125 16.4462 13.4016 17.1139 13.8938 17.6062C14.3861 18.0984 15.0538 18.375 15.75 18.375C16.4462 18.375 17.1139 18.0984 17.6062 17.6062C18.0984 17.1139 18.375 16.4462 18.375 15.75C18.375 15.0538 18.0984 14.3861 17.6062 13.8938C17.1139 13.4016 16.4462 13.125 15.75 13.125C15.0538 13.125 14.3861 13.4016 13.8938 13.8938C13.4016 14.3861 13.125 15.0538 13.125 15.75Z" stroke="#C6CAD2" stroke-width="1.7" stroke-linecap="round" stroke-linejoin="round"/>
<path d="M7.61255 9.36251L13.3875 6.38751" stroke="#C6CAD2" stroke-width="1.7" stroke-linecap="round" stroke-linejoin="round"/>
<path d="M7.61255 11.6375L13.3875 14.6125" stroke="#C6CAD2" stroke-width="1.7" stroke-linecap="round" stroke-linejoin="round"/>
</g>
<defs>
<clipPath id="clip0_18_4456">
<rect width="21" height="21" fill="white"/>
</clipPath>
</defs>
</svg>
