<svg width="26" height="26" viewBox="0 0 26 26" fill="none" xmlns="http://www.w3.org/2000/svg">
<g clip-path="url(#clip0_35_644)">
<path d="M11.375 22.75H6.49998C5.92534 22.75 5.37424 22.5217 4.96791 22.1154C4.56159 21.7091 4.33331 21.158 4.33331 20.5834V7.58335C4.33331 7.00872 4.56159 6.45762 4.96791 6.05129C5.37424 5.64496 5.92534 5.41669 6.49998 5.41669H19.5C20.0746 5.41669 20.6257 5.64496 21.032 6.05129C21.4384 6.45762 21.6666 7.00872 21.6666 7.58335V10.8334" stroke="#616161" stroke-width="2" stroke-linecap="round" stroke-linejoin="round"/>
<path d="M17.3333 3.25V7.58333" stroke="#616161" stroke-width="2" stroke-linecap="round" stroke-linejoin="round"/>
<path d="M8.66669 3.25V7.58333" stroke="#616161" stroke-width="2" stroke-linecap="round" stroke-linejoin="round"/>
<path d="M4.33331 11.9167H15.1666" stroke="#616161" stroke-width="2" stroke-linecap="round" stroke-linejoin="round"/>
<path d="M15.1667 19.5C15.1667 20.6493 15.6232 21.7515 16.4359 22.5641C17.2485 23.3768 18.3507 23.8334 19.5 23.8334C20.6493 23.8334 21.7515 23.3768 22.5641 22.5641C23.3768 21.7515 23.8334 20.6493 23.8334 19.5C23.8334 18.3507 23.3768 17.2485 22.5641 16.4359C21.7515 15.6232 20.6493 15.1667 19.5 15.1667C18.3507 15.1667 17.2485 15.6232 16.4359 16.4359C15.6232 17.2485 15.1667 18.3507 15.1667 19.5Z" stroke="#616161" stroke-width="2" stroke-linecap="round" stroke-linejoin="round"/>
<path d="M19.5 17.875V19.5L20.0417 20.0417" stroke="#616161" stroke-width="2" stroke-linecap="round" stroke-linejoin="round"/>
</g>
<defs>
<clipPath id="clip0_35_644">
<rect width="26" height="26" fill="white"/>
</clipPath>
</defs>
</svg>
