<svg width="26" height="26" viewBox="0 0 26 26" fill="none" xmlns="http://www.w3.org/2000/svg">
<g clip-path="url(#clip0_35_706)">
<path d="M4.33337 4.33331H10.8334V10.8333H4.33337V4.33331Z" stroke="#616161" stroke-width="2" stroke-linecap="round" stroke-linejoin="round"/>
<path d="M15.1666 4.33331H21.6666V10.8333H15.1666V4.33331Z" stroke="#616161" stroke-width="2" stroke-linecap="round" stroke-linejoin="round"/>
<path d="M4.33337 15.1667H10.8334V21.6667H4.33337V15.1667Z" stroke="#616161" stroke-width="2" stroke-linecap="round" stroke-linejoin="round"/>
<path d="M15.1666 18.4167C15.1666 19.2786 15.509 20.1053 16.1185 20.7148C16.728 21.3243 17.5547 21.6667 18.4166 21.6667C19.2786 21.6667 20.1052 21.3243 20.7147 20.7148C21.3242 20.1053 21.6666 19.2786 21.6666 18.4167C21.6666 17.5547 21.3242 16.7281 20.7147 16.1186C20.1052 15.5091 19.2786 15.1667 18.4166 15.1667C17.5547 15.1667 16.728 15.5091 16.1185 16.1186C15.509 16.7281 15.1666 17.5547 15.1666 18.4167Z" stroke="#616161" stroke-width="2" stroke-linecap="round" stroke-linejoin="round"/>
</g>
<defs>
<clipPath id="clip0_35_706">
<rect width="26" height="26" fill="white"/>
</clipPath>
</defs>
</svg>
